<?xml version="1.0" standalone="no"?>
<!DOCTYPE svg PUBLIC "-//W3C//DTD SVG 20010904//EN"
 "http://www.w3.org/TR/2001/REC-SVG-20010904/DTD/svg10.dtd">
<svg version="1.0" xmlns="http://www.w3.org/2000/svg"
 width="512.000000pt" height="512.000000pt" viewBox="0 0 512.000000 512.000000"
 preserveAspectRatio="xMidYMid meet">
<metadata>
Created by potrace 1.14, written by Peter Selinger 2001-2017
</metadata>
<g transform="translate(0.000000,512.000000) scale(0.100000,-0.100000)"
fill="#000000" stroke="none">
<path d="M1595 4554 c-17 -7 -49 -33 -70 -59 -22 -26 -49 -57 -60 -69 -81 -90
-117 -131 -165 -186 -30 -35 -66 -76 -80 -91 -14 -15 -43 -49 -65 -75 -22 -26
-56 -64 -75 -85 -19 -21 -53 -59 -75 -85 -22 -26 -62 -71 -89 -101 -27 -30
-56 -64 -65 -76 -8 -12 -19 -25 -23 -28 -17 -11 -20 -75 -5 -110 10 -25 27
-42 56 -56 62 -31 107 -16 169 54 26 30 61 69 77 87 17 19 53 59 80 91 28 32
59 68 70 79 11 12 47 53 80 91 33 39 62 72 65 75 3 3 37 41 75 85 39 44 75 85
80 91 6 6 33 37 60 69 28 32 57 65 65 74 46 49 54 64 56 112 3 45 0 53 -32 84
-19 19 -42 35 -52 36 -9 0 -24 2 -32 3 -8 2 -29 -3 -45 -10z"/>
<path d="M2253 4503 c-12 -2 -50 -36 -85 -75 -35 -39 -74 -83 -88 -98 -48 -52
-80 -94 -80 -104 0 -5 -3 -7 -6 -3 -3 3 -18 -8 -32 -26 -15 -18 -56 -66 -92
-107 -37 -41 -80 -90 -96 -109 -16 -18 -38 -43 -49 -55 -11 -13 -42 -48 -70
-80 -27 -32 -61 -70 -75 -85 -14 -15 -47 -54 -75 -86 -27 -32 -61 -70 -73 -84
-13 -14 -49 -55 -80 -90 -32 -35 -76 -85 -99 -110 -24 -25 -45 -54 -48 -63 -4
-10 -10 -18 -15 -18 -4 0 -12 -12 -17 -27 -8 -25 -9 -40 -4 -85 2 -21 44 -65
71 -73 25 -9 46 -10 292 -15 70 -2 132 -6 138 -10 5 -3 -12 -29 -40 -59 -28
-29 -50 -55 -50 -58 0 -2 -18 -22 -40 -44 -22 -22 -40 -42 -40 -45 0 -2 -8
-12 -17 -22 -34 -36 -89 -97 -148 -167 -33 -38 -67 -76 -75 -85 -8 -9 -40 -44
-70 -79 -30 -35 -64 -74 -75 -86 -11 -13 -42 -48 -70 -80 -27 -31 -61 -69 -75
-84 -14 -15 -50 -56 -80 -91 -30 -35 -63 -73 -73 -84 -10 -12 -40 -45 -65 -75
-26 -30 -56 -63 -67 -75 -40 -42 -55 -75 -55 -121 0 -37 6 -51 32 -80 40 -42
98 -58 144 -39 17 7 57 43 90 80 32 37 71 80 86 96 15 15 25 28 23 28 -3 0 10
15 28 34 17 18 49 53 70 77 21 24 60 68 85 97 26 30 58 66 72 81 14 16 48 54
75 87 28 32 59 68 70 80 21 22 100 113 132 150 10 12 47 54 83 94 36 40 73 82
83 94 34 40 122 140 140 158 9 10 17 23 17 29 0 5 5 7 10 4 6 -3 10 -2 10 3 0
9 41 58 103 126 68 72 92 118 91 175 0 33 -5 56 -12 59 -7 2 -12 9 -12 15 0 7
-14 18 -32 26 -30 13 -60 15 -390 23 -115 2 -113 1 -68 50 8 9 33 37 55 63 22
26 51 59 65 75 14 15 36 40 50 56 14 16 76 88 139 159 62 72 134 154 160 183
25 29 64 73 86 97 67 75 165 187 226 259 13 16 30 35 37 43 39 40 28 121 -22
157 -30 22 -59 27 -103 19z"/>
<path d="M2694 4192 c-22 -7 -74 -46 -74 -55 0 -4 -10 -16 -22 -29 -13 -13
-48 -52 -78 -87 -30 -35 -64 -73 -75 -85 -11 -12 -43 -49 -72 -81 -28 -33 -65
-76 -82 -95 -17 -19 -31 -39 -31 -43 0 -5 -4 -5 -10 -2 -5 3 -10 1 -10 -5 0
-6 -10 -21 -22 -34 -30 -30 -108 -121 -126 -147 -31 -44 -7 -133 44 -160 32
-17 74 -18 104 -3 22 10 136 124 125 124 -2 0 9 12 23 28 15 15 50 53 77 85
28 32 59 69 70 81 11 12 48 54 81 92 34 38 77 87 95 108 19 21 45 51 58 65 74
82 88 121 63 183 -19 47 -86 76 -138 60z"/>
<path d="M680 4134 c-19 -9 -58 -43 -87 -77 -29 -34 -65 -76 -80 -93 -15 -17
-51 -58 -79 -90 -29 -32 -62 -71 -75 -85 -13 -14 -49 -55 -79 -90 -30 -35 -68
-78 -85 -95 -16 -18 -44 -49 -62 -70 -18 -22 -47 -55 -64 -74 -47 -52 -60 -90
-48 -134 13 -46 38 -72 81 -84 35 -10 83 1 106 25 7 7 18 13 24 13 6 0 9 3 5
6 -3 4 -1 12 6 19 14 15 134 149 160 179 63 74 126 145 155 174 17 18 32 37
32 41 0 3 8 13 18 22 9 8 37 39 62 68 25 29 67 76 93 104 50 54 83 111 81 137
-3 37 -27 77 -55 94 -42 25 -69 27 -109 10z"/>
<path d="M3125 3918 c-28 -15 -85 -76 -85 -90 0 -6 -3 -9 -6 -5 -3 3 -26 -19
-51 -49 -24 -31 -52 -63 -61 -74 -39 -42 -82 -90 -147 -165 -39 -44 -81 -92
-95 -106 -43 -47 -105 -121 -117 -143 -28 -48 1 -136 50 -152 65 -21 88 -14
146 45 51 51 105 111 208 231 21 24 45 51 53 60 8 9 40 45 70 80 30 36 69 80
87 100 89 98 102 114 97 122 -3 4 -1 8 4 8 12 0 8 59 -6 92 -6 14 -20 29 -31
33 -12 3 -21 11 -21 16 0 13 -71 11 -95 -3z"/>
<path d="M3545 3605 c-17 -7 -52 -39 -80 -71 -27 -32 -59 -67 -70 -80 -11 -12
-40 -45 -65 -74 -25 -29 -58 -67 -75 -85 -16 -17 -50 -56 -75 -85 -56 -66
-116 -134 -152 -172 -15 -15 -25 -28 -23 -28 2 0 -8 -13 -23 -28 -50 -52 -112
-127 -112 -135 0 -4 -4 -5 -10 -2 -5 3 -10 3 -10 -2 0 -8 -8 -18 -83 -104 -22
-24 -62 -71 -90 -104 -29 -32 -64 -72 -79 -88 -15 -16 -42 -47 -60 -69 -18
-23 -46 -55 -63 -73 -16 -17 -59 -65 -95 -106 -72 -82 -84 -96 -134 -154 -39
-44 -48 -73 -42 -123 5 -38 54 -91 86 -93 11 -1 26 -2 33 -3 30 -5 70 20 109
66 24 27 57 65 73 83 17 18 57 63 90 101 33 37 70 78 82 91 12 13 20 23 18 23
-2 0 13 18 33 39 20 21 44 47 52 57 9 11 51 60 95 109 44 50 86 97 93 105 7 8
22 27 35 41 27 31 136 156 157 179 8 9 42 47 75 85 33 39 68 79 78 90 60 68
88 99 137 156 30 35 66 75 80 90 14 15 45 51 70 80 25 29 53 61 62 70 50 52
62 101 38 158 -22 55 -96 82 -155 56z"/>
<path d="M655 3483 c-24 -6 -79 -64 -225 -233 -54 -62 -128 -146 -155 -176
-16 -18 -43 -47 -58 -66 -48 -55 -141 -161 -160 -181 -65 -67 -49 -159 35
-203 54 -28 84 -19 148 46 33 33 60 62 60 64 0 3 12 18 28 34 15 16 52 57 82
92 30 35 59 68 65 74 5 6 39 45 75 86 35 41 71 82 80 91 8 8 36 40 62 70 26
30 59 68 73 84 43 48 56 86 44 128 -16 60 -95 106 -154 90z"/>
<path d="M3838 3257 c-38 -9 -62 -31 -183 -172 -38 -44 -76 -87 -84 -96 -9 -8
-36 -39 -61 -68 -52 -62 -44 -52 -140 -161 -41 -47 -77 -87 -80 -90 -3 -3 -30
-34 -60 -70 -30 -36 -58 -66 -62 -68 -5 -2 -8 -10 -8 -18 0 -8 -5 -14 -11 -14
-5 0 -7 -4 -4 -10 3 -5 2 -10 -3 -10 -11 0 0 -66 15 -95 17 -31 46 -53 77 -59
16 -3 31 -7 33 -10 9 -8 77 26 95 48 10 11 33 37 51 56 18 19 62 69 97 110 35
41 69 80 74 85 6 6 42 46 81 90 38 44 75 87 82 95 8 8 24 27 36 41 19 22 89
102 161 183 60 68 68 126 27 184 -33 45 -79 62 -133 49z"/>
<path d="M2268 2978 c-78 -85 -85 -94 -163 -184 -27 -31 -59 -67 -70 -80 -11
-12 -45 -50 -75 -85 -30 -35 -70 -78 -87 -97 -18 -18 -33 -36 -33 -39 0 -4
-35 -43 -102 -115 -10 -10 -18 -23 -18 -29 0 -5 -4 -7 -10 -4 -5 3 -10 2 -10
-3 0 -10 -49 -69 -107 -130 -18 -18 -33 -36 -33 -38 0 -4 -57 -67 -117 -131
-13 -13 -23 -26 -23 -29 0 -3 -10 -15 -23 -27 -12 -12 -49 -53 -82 -92 -33
-38 -71 -82 -85 -97 -14 -14 -45 -50 -70 -78 -25 -29 -54 -62 -65 -74 -11 -12
-45 -51 -75 -86 -30 -35 -64 -74 -75 -86 -12 -12 -39 -44 -60 -69 -22 -26 -53
-61 -70 -79 -145 -156 -164 -215 -94 -290 22 -24 37 -30 82 -34 49 -4 58 -1
81 21 13 14 27 22 30 19 3 -3 6 0 6 6 0 7 8 20 18 30 15 16 98 109 149 168 45
52 140 160 163 185 14 15 44 49 66 76 23 26 50 57 60 69 51 57 133 151 169
193 22 25 52 59 68 74 15 16 27 30 27 32 0 3 12 17 28 33 15 16 48 53 73 83
82 95 123 142 149 170 14 15 44 49 66 76 23 26 52 59 65 73 13 14 44 50 69 79
25 29 56 65 70 80 14 15 50 56 80 91 30 35 64 73 75 85 11 13 43 49 70 81 28
32 65 74 83 93 60 65 72 116 39 177 -23 44 -54 61 -114 61 l-53 1 -72 -80z"/>
<path d="M960 3023 c-8 -3 -37 -29 -65 -57 -47 -49 -66 -70 -175 -196 -25 -29
-58 -67 -75 -84 -16 -18 -54 -61 -84 -97 -30 -35 -62 -71 -70 -80 -82 -84 -96
-119 -77 -194 21 -84 151 -113 214 -47 25 27 114 126 162 183 12 13 45 51 74
84 29 33 90 103 136 155 46 52 89 99 97 103 7 5 11 12 8 18 -4 5 -2 9 3 9 13
0 32 46 32 76 0 40 -30 95 -64 115 -30 18 -84 24 -116 12z"/>
<path d="M2055 1602 c-148 -25 -240 -112 -231 -217 2 -16 4 -39 4 -50 3 -31
72 -102 117 -121 40 -17 156 -50 208 -60 111 -21 144 -92 57 -122 -28 -10
-193 -8 -240 3 -46 11 -110 13 -110 3 0 -5 -4 -6 -10 -3 -5 3 -11 -2 -12 -12
-6 -68 -4 -91 6 -105 33 -45 295 -77 394 -48 18 5 33 9 35 9 1 0 15 4 30 10
16 6 33 11 38 11 6 0 17 6 25 14 7 8 24 23 37 33 64 52 75 189 20 261 -14 19
-34 37 -45 40 -10 2 -18 7 -18 11 0 9 -83 43 -112 46 -10 2 -19 3 -20 5 -2 1
-10 3 -18 5 -8 2 -25 6 -37 9 -13 3 -33 9 -45 12 -13 3 -27 6 -33 8 -53 13
-84 43 -69 67 20 33 161 47 254 25 14 -4 45 -7 69 -8 51 -3 69 15 65 64 -1 18
-3 39 -3 45 -2 22 -47 43 -112 54 -66 11 -209 17 -244 11z"/>
<path d="M3847 1604 c-1 -1 -18 -4 -38 -7 -130 -17 -213 -84 -247 -201 -3 -12
-8 -127 -9 -257 l-4 -236 27 -18 c20 -13 41 -16 90 -13 35 2 68 8 74 14 5 5
12 27 16 49 3 22 8 43 11 48 2 4 1 7 -4 7 -10 0 -9 142 0 157 4 7 3 14 -2 17
-6 4 -6 18 -1 36 5 17 5 30 1 30 -9 0 -6 43 4 59 3 6 1 11 -5 11 -8 0 -8 6 0
20 6 11 8 20 4 20 -3 0 -1 7 6 15 7 8 9 15 4 15 -10 0 25 31 52 46 29 17 153
15 186 -2 56 -29 62 -58 64 -294 2 -208 2 -215 24 -232 34 -28 134 -25 163 5
22 21 23 27 21 237 -1 237 -10 291 -54 355 -58 85 -137 115 -313 119 -37 1
-69 1 -70 0z"/>
<path d="M2676 1586 c-27 -6 -38 -15 -43 -35 -8 -30 -8 -373 1 -414 23 -124
91 -210 191 -245 71 -25 121 -31 238 -33 85 -1 87 -2 83 -24 -6 -34 -24 -63
-45 -74 -43 -24 -140 -32 -210 -19 -93 17 -119 17 -137 -3 -10 -11 -15 -22
-11 -25 3 -3 2 -17 -3 -30 -6 -14 -6 -26 1 -29 5 -4 7 -10 4 -14 -7 -13 29
-41 66 -52 48 -13 123 -22 199 -21 56 0 77 3 135 15 85 19 188 109 198 174 1
10 5 23 8 28 4 8 5 730 0 772 -4 39 -148 50 -185 14 -18 -19 -20 -34 -20 -268
-1 -136 -4 -253 -8 -259 -10 -15 -201 -11 -206 4 -2 6 -10 8 -18 5 -8 -3 -14
-1 -14 4 0 4 -11 20 -24 34 -33 36 -39 75 -41 274 -1 94 -3 178 -4 187 -2 36
-79 53 -155 34z"/>
<path d="M4680 1590 c-114 -3 -203 -10 -213 -16 -15 -8 -19 -23 -19 -64 1 -82
5 -84 191 -85 88 0 163 -4 167 -8 5 -4 -3 -18 -16 -31 -14 -13 -87 -87 -163
-165 -136 -139 -169 -187 -168 -240 2 -55 5 -63 35 -86 31 -23 35 -24 278 -25
136 0 258 2 271 5 29 8 47 43 47 88 -1 60 -46 88 -125 77 -22 -3 -50 -2 -62 2
-13 4 -25 3 -28 -3 -4 -5 -11 -6 -17 -3 -6 4 -34 6 -64 5 -29 0 -56 4 -59 9
-3 6 18 34 47 64 136 137 242 252 263 285 44 67 37 149 -14 176 -36 18 -106
21 -351 15z"/>
</g>
</svg>
